<svg width="406" height="146" viewBox="0 0 406 146" fill="none" xmlns="http://www.w3.org/2000/svg">
<path d="M59.9449 144V118.621H0V96.2638L65.1927 2H90.6239V94.0482H110V118.621H90.6239V144H59.9449ZM59.9449 94.0482V47.722L28.4587 94.0482H59.9449Z" fill="#E8E8E8"/>
<path d="M355.945 144V118.621H296V96.2638L361.193 2H386.624V94.0482H406V118.621H386.624V144H355.945ZM355.945 94.0482V47.722L324.459 94.0482H355.945Z" fill="#E8E8E8"/>
<path d="M276 73C276 113.317 243.317 146 203 146C162.683 146 130 113.317 130 73C130 32.6832 162.683 0 203 0C243.317 0 276 32.6832 276 73Z" fill="white"/>
<path fill-rule="evenodd" clip-rule="evenodd" d="M203 126C232.271 126 256 102.271 256 73C256 43.7289 232.271 20 203 20C173.729 20 150 43.7289 150 73C150 102.271 173.729 126 203 126ZM203 146C243.317 146 276 113.317 276 73C276 32.6832 243.317 0 203 0C162.683 0 130 32.6832 130 73C130 113.317 162.683 146 203 146Z" fill="#FB5420"/>
<path fill-rule="evenodd" clip-rule="evenodd" d="M156 118.999L231 25.9989L243.455 36.043L168.455 129.043L156 118.999Z" fill="#FB5420"/>
</svg>
