<svg width="48" height="48" viewBox="0 0 48 48" fill="none" xmlns="http://www.w3.org/2000/svg">
<circle cx="24" cy="24" r="23.5" fill="#191920" stroke="#404048"/>
<path fill-rule="evenodd" clip-rule="evenodd" d="M23.1662 15.0207C21.0573 15.2258 19.119 16.1389 17.628 17.6297C16.2292 19.0284 15.378 20.7351 15.0654 22.7683C14.9782 23.3357 14.9782 24.6663 15.0654 25.2337C15.378 27.2669 16.2292 28.9737 17.628 30.3723C19.0268 31.771 20.7337 32.622 22.7672 32.9346C23.3346 33.0218 24.6654 33.0218 25.2328 32.9346C27.2663 32.622 28.9732 31.771 30.372 30.3723C31.7708 28.9737 32.622 27.2669 32.9346 25.2337C33.0218 24.6663 33.0218 23.3357 32.9346 22.7683C32.622 20.7351 31.7708 19.0284 30.372 17.6297C28.9827 16.2405 27.2554 15.3756 25.268 15.0739C24.8279 15.0071 23.6207 14.9765 23.1662 15.0207ZM24.7248 16.4311C26.4937 16.6038 28.109 17.3684 29.3712 18.6304C32.3512 21.6101 32.3512 26.392 29.3712 29.3716C26.3912 32.3513 21.6088 32.3513 18.6288 29.3716C15.6488 26.392 15.6488 21.6101 18.6288 18.6304C20.2463 17.013 22.4694 16.211 24.7248 16.4311ZM27.2053 20.9926C27.1268 21.0264 26.2999 21.827 24.9252 23.2003L22.7683 25.3551L21.8607 24.4536C21.3616 23.9577 20.905 23.5276 20.8463 23.4978C20.4842 23.314 20.0762 23.4461 19.8959 23.8054C19.7955 24.0053 19.7848 24.193 19.8629 24.3808C19.9378 24.5609 22.2725 26.9064 22.4678 26.9977C22.6284 27.0728 22.7926 27.0818 22.9961 27.0265C23.117 26.9937 23.4795 26.6467 25.5439 24.5877C26.8677 23.2674 28.0009 22.1159 28.0623 22.0287C28.1604 21.8893 28.1738 21.8421 28.1739 21.6355C28.174 21.4315 28.1602 21.3813 28.0683 21.2508C27.8721 20.9723 27.507 20.8631 27.2053 20.9926Z" fill="white"/>
</svg>
