<svg width="16" height="16" viewBox="0 0 16 16" fill="none" xmlns="http://www.w3.org/2000/svg">
<path d="M3.77729 8.31216L7.33739 11.8722C7.41973 11.9546 7.52965 12 7.64685 12C7.76405 12 7.87397 11.9546 7.95631 11.8722L8.21849 11.6101C8.38909 11.4393 8.38909 11.1617 8.21849 10.9912L5.22898 8.00166L8.22181 5.00884C8.30415 4.92643 8.34961 4.81658 8.34961 4.69944C8.34961 4.58217 8.30415 4.47232 8.22181 4.38985L7.95963 4.1278C7.87722 4.0454 7.76737 4 7.65017 4C7.53297 4 7.42305 4.0454 7.34071 4.1278L3.77729 7.69109C3.69475 7.77376 3.64942 7.88413 3.64968 8.00146C3.64942 8.11925 3.69475 8.22956 3.77729 8.31216Z" fill="#80808C"/>
<path d="M7.77729 8.31216L11.3374 11.8722C11.4197 11.9546 11.5296 12 11.6469 12C11.7641 12 11.874 11.9546 11.9563 11.8722L12.2185 11.6101C12.3891 11.4393 12.3891 11.1617 12.2185 10.9912L9.22898 8.00166L12.2218 5.00884C12.3041 4.92643 12.3496 4.81658 12.3496 4.69944C12.3496 4.58217 12.3041 4.47232 12.2218 4.38985L11.9596 4.1278C11.8772 4.0454 11.7674 4 11.6502 4C11.533 4 11.423 4.0454 11.3407 4.1278L7.77729 7.69109C7.69475 7.77376 7.64942 7.88413 7.64968 8.00146C7.64942 8.11925 7.69475 8.22956 7.77729 8.31216Z" fill="#80808C"/>
</svg>
