<svg width="8" height="8" viewBox="0 0 8 8" fill="none" xmlns="http://www.w3.org/2000/svg">
<path d="M3.68784 1.77729L0.127804 5.33739C0.045398 5.41973 0 5.52965 0 5.64685C0 5.76405 0.045398 5.87397 0.127804 5.95631L0.389916 6.21849C0.560711 6.38909 0.838302 6.38909 1.00884 6.21849L3.99834 3.22898L6.99116 6.22181C7.07357 6.30415 7.18342 6.34961 7.30056 6.34961C7.41783 6.34961 7.52768 6.30415 7.61015 6.22181L7.8722 5.95963C7.9546 5.87722 8 5.76737 8 5.65017C8 5.53297 7.9546 5.42305 7.8722 5.34071L4.30891 1.77729C4.22624 1.69475 4.11587 1.64942 3.99854 1.64968C3.88075 1.64942 3.77044 1.69475 3.68784 1.77729Z" fill="#191920"/>
</svg>
