<svg width="12" height="12" viewBox="0 0 12 12" fill="none" xmlns="http://www.w3.org/2000/svg">
<g clip-path="url(#clip0_1499_2700)">
<path fill-rule="evenodd" clip-rule="evenodd" d="M11.4725 0.0407877C11.4119 0.0685733 11.3114 0.161599 11.188 0.304281C10.129 1.52858 8.59687 2.44067 6.99499 2.80047L6.76056 2.85313V5.25353V7.65393L6.99738 7.70711C8.60421 8.06785 10.108 8.96426 11.1935 10.2085C11.3021 10.3329 11.4267 10.4517 11.4704 10.4725C11.6482 10.5569 11.8555 10.4819 11.9473 10.2998L12 10.1952V5.25353V0.311838L11.9473 0.207126C11.9087 0.130622 11.8663 0.0881923 11.7899 0.0496117C11.6639 -0.0140087 11.5963 -0.0158863 11.4725 0.0407877ZM5.96548 2.97132C5.95582 2.98101 5.00011 2.9942 3.84171 3.00065C1.76021 3.01224 1.73473 3.01295 1.67078 3.06078C1.53052 3.16565 1.51003 3.21805 1.5015 3.49403L1.49358 3.74948L0.86435 3.75642C0.271227 3.76295 0.231398 3.76611 0.170424 3.81174C0.134838 3.83835 0.0839904 3.88927 0.0574064 3.9249C0.0102163 3.98814 0.00890354 4.01919 0.00259746 5.21934C-0.00459944 6.58733 -0.00795183 6.5545 0.151224 6.67609L0.239744 6.74372L0.868711 6.75067L1.49768 6.75761V6.98023C1.49768 7.24393 1.52834 7.33292 1.6516 7.42705C1.72817 7.4855 1.76476 7.49581 1.92152 7.50294L2.10287 7.51118L2.86877 9.5548C3.33481 10.7983 3.66172 11.6378 3.7038 11.699C3.84059 11.898 4.05155 12.0007 4.32252 12C4.6175 11.9993 4.67273 11.9614 5.30995 11.3231C5.80684 10.8253 5.85631 10.7684 5.90418 10.6393C5.94628 10.5257 5.95437 10.4645 5.94602 10.3225L5.93566 10.1465L5.27556 8.82646L4.61546 7.50641L5.17227 7.50839C5.47853 7.50949 5.78973 7.51796 5.86388 7.52723L5.99867 7.54408V5.24891C5.99867 3.98655 5.99516 2.95372 5.99087 2.95372C5.98655 2.95372 5.97514 2.96162 5.96548 2.97132Z" fill="#FB5420"/>
</g>
<defs>
<clipPath id="clip0_1499_2700">
<rect width="12" height="12" fill="white"/>
</clipPath>
</defs>
</svg>
