<svg width="16" height="16" viewBox="0 0 16 16" fill="none" xmlns="http://www.w3.org/2000/svg">
<path d="M11 5.00054H3.15131L4.77731 3.91659C4.8326 3.88046 4.88018 3.83373 4.9173 3.7791C4.95443 3.72448 4.98036 3.66304 4.99361 3.59834C5.00686 3.53363 5.00716 3.46694 4.99449 3.40212C4.98182 3.33731 4.95643 3.27564 4.91979 3.22069C4.88315 3.16573 4.83599 3.11858 4.78103 3.08196C4.72607 3.04534 4.66439 3.01996 4.59957 3.00731C4.53475 2.99466 4.46806 2.99497 4.40336 3.00823C4.33866 3.0215 4.27723 3.04745 4.22261 3.08459L1.22261 5.08459C1.15413 5.13025 1.09799 5.19211 1.05915 5.26468C1.02032 5.33725 1 5.41828 1 5.50059C1 5.58289 1.02032 5.66393 1.05915 5.7365C1.09799 5.80907 1.15413 5.87093 1.22261 5.91659L4.22261 7.91659C4.33295 7.99001 4.46793 8.01663 4.59788 7.99058C4.72783 7.96453 4.84212 7.88796 4.91564 7.77768C4.98915 7.6674 5.01588 7.53245 4.98994 7.40248C4.96401 7.27251 4.88753 7.15815 4.77731 7.08454L3.15131 6.00029H11C11.7956 6.00029 12.5587 6.31636 13.1213 6.87897C13.6839 7.44158 14 8.20464 14 9.00029C14 9.79594 13.6839 10.559 13.1213 11.1216C12.5587 11.6842 11.7956 12.0003 11 12.0003H3.49996C3.36735 12.0003 3.24018 12.053 3.14641 12.1467C3.05264 12.2405 2.99996 12.3677 2.99996 12.5003C2.99996 12.6329 3.05264 12.7601 3.14641 12.8538C3.24018 12.9476 3.36735 13.0003 3.49996 13.0003H11C11.5279 13.0045 12.0514 12.9041 12.5404 12.7049C13.0293 12.5058 13.474 12.2118 13.8488 11.84C14.2236 11.4682 14.5211 11.0258 14.7241 10.5384C14.9271 10.0511 15.0316 9.52836 15.0316 9.00041C15.0316 8.47246 14.9271 7.94974 14.7241 7.46238C14.5211 6.97502 14.2236 6.53267 13.8488 6.16083C13.474 5.78899 13.0293 5.49502 12.5404 5.29588C12.0514 5.09674 11.5279 4.99636 11 5.00054Z" fill="#FB5420"/>
</svg>
