<svg width="40" height="40" viewBox="0 0 40 40" fill="none" xmlns="http://www.w3.org/2000/svg">
<circle cx="20" cy="20" r="19.5" fill="white" stroke="#E0E0E0"/>
<g clip-path="url(#clip0_1498_7576)">
<path d="M20.9162 20.0078L24.81 16.1139C25.0634 15.8606 25.0634 15.4511 24.81 15.1978C24.5567 14.9445 24.1472 14.9445 23.8939 15.1978L20 19.0917L16.1061 15.1978C15.8527 14.9445 15.4433 14.9445 15.1901 15.1978C14.9366 15.4511 14.9366 15.8606 15.1901 16.1139L19.0839 20.0078L15.1901 23.9017C14.9366 24.155 14.9366 24.5645 15.1901 24.8178C15.3163 24.9442 15.4822 25.0076 15.6481 25.0076C15.8139 25.0076 15.9798 24.9442 16.1061 24.8178L20 20.9239L23.8939 24.8178C24.0202 24.9442 24.1861 25.0076 24.3519 25.0076C24.5178 25.0076 24.6836 24.9442 24.81 24.8178C25.0634 24.5645 25.0634 24.155 24.81 23.9017L20.9162 20.0078Z" fill="#191920"/>
</g>
<defs>
<clipPath id="clip0_1498_7576">
<rect width="10" height="10" fill="white" transform="translate(15 15)"/>
</clipPath>
</defs>
</svg>
