<svg width="32" height="32" viewBox="0 0 32 32" fill="none" xmlns="http://www.w3.org/2000/svg">
<path fill-rule="evenodd" clip-rule="evenodd" d="M15.4443 2.03791C15.3628 2.06485 12.6552 3.13034 9.42744 4.40562C4.83463 6.22026 3.51703 6.76278 3.36681 6.90112C2.97355 7.26338 2.98298 7.14793 3.01256 11.2331C3.04119 15.1857 3.05577 15.4105 3.38501 16.9745C4.15274 20.6213 6.06658 24.0137 8.8337 26.6324C10.541 28.2481 12.4298 29.4887 14.7033 30.4875C15.3356 30.7653 15.4575 30.8001 15.8 30.8C16.1422 30.8 16.2672 30.7644 16.9171 30.4819C22.4832 28.0628 26.5201 23.461 28.0045 17.8429C28.2114 17.0599 28.3335 16.4556 28.4657 15.5617C28.5424 15.0422 28.566 14.2055 28.5874 11.2331C28.617 7.14533 28.6267 7.26367 28.231 6.89915C28.078 6.75816 26.7841 6.22511 22.1111 4.37806C16.0588 1.98573 15.8373 1.90797 15.4443 2.03791ZM21.0462 6.39894L26.2036 8.43932L26.2216 11.0587C26.2489 15.0219 26.0992 16.2759 25.334 18.4959C23.8745 22.7305 20.6384 26.2511 16.4 28.2152L15.7938 28.4961L15.0115 28.1201C10.2395 25.8265 6.88138 21.6987 5.75637 16.7441C5.42458 15.2828 5.39749 14.8904 5.39696 11.5387L5.39643 8.44146L10.5538 6.40103C13.3903 5.27879 15.7511 4.36014 15.8 4.35958C15.8489 4.35902 18.2097 5.27671 21.0462 6.39894ZM19.9496 11.9924C19.8198 12.0455 18.7598 13.0097 17.1194 14.5669L14.4967 17.0565L13.1773 15.8114C12.101 14.7958 11.8061 14.548 11.5768 14.4669C10.8482 14.2092 10.0902 14.6648 10.0094 15.409C9.9523 15.9349 10.0286 16.0296 12.0489 17.9398C14.0003 19.7848 14.0671 19.8334 14.5794 19.7785C14.7154 19.764 14.9198 19.71 15.0337 19.6587C15.1524 19.6051 16.5719 18.2974 18.3608 16.5935C21.1917 13.8973 21.4875 13.5983 21.5513 13.3687C21.8128 12.4278 20.8686 11.6164 19.9496 11.9924Z" fill="white"/>
</svg>
