<svg width="48" height="48" viewBox="0 0 48 48" fill="none" xmlns="http://www.w3.org/2000/svg">
<circle cx="24" cy="24" r="23.5" fill="#191920" stroke="#404048"/>
<path fill-rule="evenodd" clip-rule="evenodd" d="M18.7843 15.006C18.7552 15.012 18.6127 15.036 18.4674 15.0595C18.1243 15.1151 17.66 15.2673 17.3355 15.4307C16.1675 16.019 15.3471 17.0803 15.0655 18.3675C15.0032 18.6519 15 18.9317 15 24C15 29.0684 15.0032 29.3482 15.0655 29.6326C15.4372 31.332 16.7396 32.607 18.4498 32.9457C18.8157 33.0182 27.8365 33.018 28.2009 32.9455C28.7624 32.8338 29.303 32.6041 29.7766 32.276C29.9348 32.1664 30.4337 31.6954 31.0929 31.0333C31.9289 30.1934 32.1961 29.9025 32.351 29.663C32.6863 29.1447 32.8901 28.5874 32.9715 27.9659C32.9972 27.7705 33.0052 26.229 32.9968 23.1376C32.9855 19.0171 32.9788 18.5741 32.9248 18.3561C32.5041 16.6587 31.358 15.4965 29.697 15.083C29.3996 15.009 29.3653 15.0085 24.1174 15.0019C21.2132 14.9982 18.8133 15.0001 18.7843 15.006ZM29.2803 16.4459C30.4474 16.6711 31.3245 17.5482 31.5483 18.7138C31.5891 18.9263 31.5979 19.6609 31.5979 22.8559V26.7397L30.3747 26.7545C29.2604 26.7679 29.1263 26.776 28.8698 26.8451C27.8798 27.1118 27.1059 27.8858 26.8392 28.8757C26.7701 29.1323 26.762 29.2664 26.7486 30.3807L26.7338 31.604H22.8501C19.6552 31.604 18.9207 31.5952 18.7082 31.5544C17.5441 31.3309 16.6652 30.4519 16.4403 29.2863C16.3662 28.9019 16.3662 19.0982 16.4403 18.7138C16.6629 17.5601 17.5321 16.6806 18.6787 16.4489C19.0306 16.3778 28.9127 16.375 29.2803 16.4459ZM19.6013 19.1814C19.4348 19.2298 19.2184 19.4604 19.1697 19.6414C19.0855 19.9544 19.2107 20.2833 19.4772 20.449L19.6115 20.5325H23.9942H28.3769L28.5113 20.449C28.5852 20.403 28.6882 20.3012 28.7401 20.2227C28.8188 20.1038 28.8346 20.0409 28.8346 19.846C28.8346 19.6511 28.8188 19.5882 28.7401 19.4694C28.6882 19.3909 28.5852 19.289 28.5113 19.2431L28.3769 19.1596L24.047 19.1537C21.3778 19.15 19.6727 19.1607 19.6013 19.1814ZM19.6013 23.3354C19.4348 23.3838 19.2184 23.6145 19.1697 23.7954C19.0855 24.1084 19.2107 24.4373 19.4772 24.603L19.6115 24.6865H23.9942H28.3769L28.5113 24.603C28.5852 24.557 28.6882 24.4552 28.7401 24.3767C28.8188 24.2578 28.8346 24.1949 28.8346 24C28.8346 23.8052 28.8188 23.7423 28.7401 23.6234C28.6882 23.5449 28.5852 23.4431 28.5113 23.3971L28.3769 23.3136L24.047 23.3077C21.3778 23.304 19.6727 23.3147 19.6013 23.3354ZM19.6013 27.4892C19.4347 27.538 19.2184 27.7686 19.1697 27.9494C19.0855 28.2624 19.2107 28.5913 19.4772 28.757L19.6115 28.8405H21.9198H24.2282L24.3709 28.7461C24.5906 28.6007 24.6807 28.4286 24.6807 28.1541C24.6807 27.8795 24.5906 27.7075 24.3709 27.562L24.2282 27.4676L21.9727 27.4615C20.6112 27.4578 19.6712 27.4688 19.6013 27.4892ZM31.4769 28.2509C31.4337 28.4318 31.2214 28.8398 31.0601 29.0518C30.8496 29.3283 29.1649 30.9965 28.9483 31.1429C28.7613 31.2692 28.3935 31.4469 28.2449 31.4827L28.1481 31.506V30.523C28.1481 29.9642 28.1647 29.4504 28.1864 29.3325C28.2887 28.7793 28.7299 28.321 29.2746 28.2022C29.3981 28.1753 29.8362 28.1589 30.4841 28.157L31.5 28.1541L31.4769 28.2509Z" fill="white"/>
</svg>
