<svg width="20" height="20" viewBox="0 0 20 20" fill="none" xmlns="http://www.w3.org/2000/svg">
<path d="M12.3587 7.64336C12.1962 7.48086 11.932 7.48086 11.7695 7.64336C11.607 7.80586 11.607 8.07086 11.7695 8.23254C12.2412 8.70422 12.502 9.33172 12.502 10C12.502 11.3784 11.3803 12.5 10.002 12.5C9.33367 12.5 8.70617 12.24 8.23449 11.7675C8.07199 11.605 7.80781 11.605 7.64531 11.7675C7.48281 11.9292 7.48281 12.1942 7.64531 12.3567C8.27363 12.9867 9.11114 13.3334 10.002 13.3334C11.8403 13.3334 13.3353 11.8384 13.3353 10.0001C13.3353 9.10918 12.9887 8.27168 12.3587 7.64336Z" fill="#80808C"/>
<path d="M10.5821 6.72352C10.3929 6.6902 10.1996 6.66602 10.0013 6.66602C8.16297 6.66602 6.66797 8.16101 6.66797 9.99933C6.66797 10.1977 6.69215 10.391 6.72629 10.5801C6.76211 10.7818 6.93797 10.9243 7.13547 10.9243C7.15965 10.9243 7.18379 10.9226 7.20879 10.9176C7.43461 10.8776 7.58629 10.661 7.54629 10.4351C7.52047 10.2935 7.50129 10.1493 7.50129 9.99933C7.50129 8.62101 8.62297 7.49933 10.0013 7.49933C10.1513 7.49933 10.2955 7.51851 10.4371 7.54351C10.6588 7.58851 10.8796 7.43183 10.9196 7.20601C10.9596 6.98019 10.808 6.76352 10.5821 6.72352Z" fill="#80808C"/>
<path d="M19.8994 9.7301C19.8053 9.61842 17.5511 6.9876 14.442 5.37679C14.2403 5.27097 13.9861 5.35097 13.8803 5.55597C13.7745 5.76015 13.8545 6.01179 14.0595 6.11765C16.4545 7.35764 18.3678 9.29264 19.0219 9.99932C18.0286 11.0751 14.1195 14.9993 9.99865 14.9993C8.60033 14.9993 7.19115 14.6618 5.80865 13.9951C5.60366 13.8943 5.35284 13.9818 5.25284 14.1893C5.15202 14.396 5.23952 14.6451 5.44702 14.7451C6.94283 15.4676 8.47451 15.8326 9.99869 15.8326C15.1329 15.8326 19.7078 10.496 19.9003 10.2685C20.0319 10.1134 20.0311 9.88592 19.8994 9.7301Z" fill="#80808C"/>
<path d="M12.7342 4.64601C11.7859 4.32684 10.8659 4.16602 10 4.16602C4.86587 4.16602 0.290876 9.50269 0.0983768 9.73019C-0.0233027 9.87351 -0.0333027 10.0819 0.0750565 10.2377C0.132556 10.3202 1.51005 12.276 3.89755 13.8619C3.96837 13.9094 4.04755 13.9319 4.12755 13.9319C4.26173 13.9319 4.39423 13.8669 4.47423 13.7444C4.60173 13.5535 4.54923 13.2944 4.35755 13.1677C2.60423 12.0019 1.40423 10.5944 0.955055 10.0219C1.91423 8.98019 5.84923 4.99937 10 4.99937C10.7759 4.99937 11.6067 5.14605 12.4684 5.43519C12.6867 5.51351 12.9234 5.39269 12.9959 5.17351C13.0692 4.95519 12.9525 4.71937 12.7342 4.64601Z" fill="#80808C"/>
<path d="M17.3777 2.62285C17.2152 2.46035 16.951 2.46035 16.7885 2.62285L2.62187 16.7895C2.45938 16.952 2.45938 17.2162 2.62187 17.3787C2.70355 17.4595 2.81019 17.5004 2.91687 17.5004C3.02355 17.5004 3.13019 17.4595 3.21105 17.3787L17.3777 3.21203C17.5402 3.04953 17.5402 2.78535 17.3777 2.62285Z" fill="#80808C"/>
</svg>
