<svg width="48" height="48" viewBox="0 0 48 48" fill="none" xmlns="http://www.w3.org/2000/svg">
<circle cx="24" cy="24" r="23.5" fill="#191920" stroke="#404048"/>
<path fill-rule="evenodd" clip-rule="evenodd" d="M23.7777 15.0237C23.7268 15.0405 22.0345 15.7065 20.0171 16.5035C17.1466 17.6377 16.3231 17.9767 16.2293 18.0632C15.9835 18.2896 15.9894 18.2175 16.0078 20.7707C16.0257 23.2411 16.0349 23.3816 16.2406 24.359C16.7205 26.6383 17.9166 28.7585 19.6461 30.3953C20.7131 31.4051 21.8936 32.1804 23.3146 32.8047C23.7097 32.9783 23.786 33 24 33C24.2139 33 24.292 32.9777 24.6982 32.8012C28.177 31.2893 30.7001 28.4131 31.6278 24.9018C31.7571 24.4124 31.8335 24.0347 31.916 23.4761C31.964 23.1514 31.9787 22.6284 31.9921 20.7707C32.0106 18.2158 32.0167 18.2898 31.7694 18.062C31.6737 17.9739 30.8651 17.6407 27.9445 16.4863C24.1618 14.9911 24.0233 14.9425 23.7777 15.0237ZM27.2789 17.7493L30.5022 19.0246L30.5135 20.6617C30.5306 23.1387 30.437 23.9224 29.9588 25.3099C29.0465 27.9566 27.024 30.1569 24.375 31.3845L23.9961 31.5601L23.5072 31.3251C20.5247 29.8915 18.4259 27.3117 17.7227 24.215C17.5154 23.3017 17.4984 23.0565 17.4981 20.9617L17.4978 19.0259L20.7211 17.7506C22.4939 17.0492 23.9694 16.4751 24 16.4747C24.0306 16.4744 25.5061 17.0479 27.2789 17.7493ZM26.5935 21.2453C26.5124 21.2784 25.8499 21.8811 24.8246 22.8543L23.1854 24.4103L22.3608 23.6321C21.6881 22.9973 21.5038 22.8425 21.3605 22.7918C20.9051 22.6308 20.4314 22.9155 20.3809 23.3806C20.3452 23.7093 20.3929 23.7685 21.6556 24.9624C22.8752 26.1155 22.917 26.1459 23.2371 26.1116C23.3221 26.1025 23.4499 26.0688 23.5211 26.0367C23.5952 26.0032 24.4824 25.1859 25.6005 24.1209C27.3698 22.4358 27.5547 22.2489 27.5946 22.1055C27.758 21.5174 27.1679 21.0103 26.5935 21.2453Z" fill="white"/>
</svg>
