<svg width="40" height="12" viewBox="0 0 40 12" fill="none" xmlns="http://www.w3.org/2000/svg">
<g clip-path="url(#clip0_1499_1709)">
<path d="M35.2948 2.28102L31.6865 11.4621C31.632 11.6309 31.5316 11.7789 31.3979 11.8876C31.2738 11.9883 31.1213 12.042 30.9649 12.0403C30.868 12.0483 30.7706 12.0341 30.6791 11.9989C30.5878 11.9637 30.5045 11.9083 30.435 11.8363C30.3428 11.7272 30.2806 11.5935 30.2551 11.4497C30.2296 11.3058 30.242 11.1573 30.2907 11.0203L34.367 0.580291C34.4315 0.404982 34.5429 0.253345 34.6876 0.143927C34.828 0.0422545 34.996 -0.00792709 35.1659 0.00101836C35.3272 0.000909272 35.4844 0.0542549 35.6154 0.153746C35.758 0.257382 35.8662 0.405855 35.9247 0.578109L39.9525 10.8654C39.994 10.9736 40.0157 11.089 40.0164 11.2057C40.0198 11.32 40.0002 11.4336 39.9587 11.5391C39.9173 11.6447 39.8551 11.7396 39.7762 11.8177C39.6379 11.9589 39.4529 12.0372 39.2608 12.0359C39.0998 12.0359 38.943 11.9825 38.8123 11.8832C38.6836 11.7694 38.5839 11.623 38.5226 11.4577L34.8742 2.33229L35.2948 2.28102ZM32.3257 9.04465L33.0474 7.40829H37.5896L37.8618 9.04465H32.3257Z" fill="#80808C"/>
<path d="M28.4228 10.2365C28.5268 10.2332 28.6303 10.2524 28.7269 10.2932C28.8236 10.3338 28.9113 10.3952 28.9846 10.4733C29.0605 10.5502 29.121 10.6426 29.1623 10.7448C29.2036 10.8471 29.2249 10.9572 29.2249 11.0684C29.2249 11.1795 29.2036 11.2896 29.1623 11.3919C29.121 11.4941 29.0605 11.5865 28.9846 11.6635C28.9112 11.7416 28.8236 11.803 28.7269 11.8438C28.6303 11.8847 28.5268 11.9043 28.4228 11.9013H23.031C22.9217 11.9085 22.8122 11.8909 22.7097 11.8499C22.6072 11.8089 22.5141 11.7452 22.4367 11.6631C22.3593 11.5811 22.2993 11.4826 22.2606 11.3741C22.222 11.2656 22.2056 11.1497 22.2125 11.034V0.873267C22.2089 0.75894 22.2285 0.645049 22.2701 0.539449C22.3118 0.433849 22.3743 0.338939 22.4537 0.261267C22.5356 0.174758 22.6333 0.107012 22.741 0.0621761C22.8487 0.0172306 22.9638 -0.0037151 23.0795 0.000539444C23.1846 0.000321262 23.2887 0.0227942 23.3854 0.0667579C23.482 0.110612 23.5691 0.174975 23.6413 0.255812C23.7252 0.331739 23.7917 0.426649 23.836 0.533558C23.8802 0.640467 23.9011 0.756649 23.897 0.873267V10.5256L23.5609 10.2365H28.4228Z" fill="#80808C"/>
<path d="M16.457 11.9313C15.3573 11.9313 14.3952 11.6811 13.5704 11.1807C12.7599 10.6949 12.0901 9.98433 11.6333 9.12546C11.1824 8.24182 10.957 7.22542 10.957 6.07637C10.957 4.79487 11.1903 3.70397 11.657 2.80364C12.1381 1.89087 12.7566 1.2 13.5127 0.730911C14.2435 0.255929 15.0838 0.00305705 15.9416 2.50902e-06C16.5696 -0.000652036 17.192 0.126766 17.7746 0.375275C18.3633 0.624657 18.8966 1.00091 19.3405 1.48037C19.8073 1.97389 20.1782 2.55949 20.4323 3.204C20.7152 3.91015 20.8621 4.66898 20.8642 5.436C20.866 5.54837 20.845 5.65986 20.8025 5.76284C20.7599 5.86571 20.6969 5.95778 20.6179 6.03273C20.4625 6.18993 20.2554 6.27688 20.0405 6.27491H11.9045L11.5199 4.52946H19.4467L19.1374 5.05527V4.53382C19.0969 3.98073 18.8956 3.45447 18.5612 3.02728C18.2534 2.59266 17.8504 2.24367 17.3869 2.01055C16.9382 1.776 16.444 1.65502 15.9436 1.65709C15.5207 1.65895 15.1017 1.74131 14.7065 1.90037C14.2925 2.05822 13.9188 2.31546 13.6148 2.652C13.2729 3.03415 13.0069 3.4848 12.8323 3.97746C12.6273 4.60888 12.53 5.27368 12.5447 5.94109C12.5287 6.72251 12.6914 7.49651 13.0189 8.19709C13.3341 8.85153 13.8196 9.39698 14.4183 9.76909C15.0168 10.1412 15.7034 10.3244 16.3972 10.2971C16.8237 10.3059 17.2486 10.2384 17.6539 10.0975C17.9823 9.9804 18.2945 9.81709 18.5818 9.612C18.8191 9.42797 19.0396 9.22091 19.2405 8.99346C19.3885 8.87182 19.5687 8.802 19.756 8.79382C19.8484 8.78957 19.9405 8.8068 20.0259 8.84455C20.1113 8.88229 20.1876 8.93946 20.2498 9.012C20.3162 9.08106 20.3688 9.16364 20.4042 9.25473C20.4396 9.34582 20.4572 9.44368 20.456 9.54218C20.4528 9.67211 20.4215 9.79964 20.3642 9.91462C20.307 10.0297 20.2255 10.1292 20.1261 10.2055C19.6803 10.71 19.1496 11.1221 18.5612 11.4207C17.906 11.7593 17.1861 11.934 16.457 11.9313Z" fill="#80808C"/>
<path fill-rule="evenodd" clip-rule="evenodd" d="M9.61516 0C9.8065 0 9.9901 0.0804003 10.1254 0.223637C10.2607 0.366873 10.3368 0.561055 10.3368 0.763636C10.3368 0.966218 10.2607 1.1604 10.1254 1.30364C9.9901 1.44687 9.8065 1.52727 9.61516 1.52727H6.93474C6.7433 1.52727 6.5598 1.44687 6.42444 1.30364C6.28908 1.1604 6.2131 0.966218 6.2131 0.763636C6.2131 0.561055 6.28908 0.366873 6.42444 0.223637C6.5598 0.0804003 6.7433 0 6.93474 0H9.61516ZM5.13062 11.8364C5.56258 11.6476 5.77289 11.2025 5.59454 10.7455L1.62753 0.560727C1.58526 0.452073 1.5232 0.353236 1.44485 0.27C1.3665 0.186654 1.27351 0.120546 1.17103 0.075273C1.06856 0.0301094 0.958642 0.0066544 0.847601 0.00632713C0.73657 0.00610894 0.62656 0.0289094 0.523879 0.0736367C0.421189 0.118364 0.327828 0.184036 0.249117 0.266836C0.170405 0.349745 0.1079 0.448254 0.0651577 0.556691C0.0224154 0.665127 0.000270698 0.781419 2.65658e-06 0.89891C-0.000275694 1.0164 0.0213222 1.1328 0.0635697 1.24146L3.9966 11.4545C4.25433 11.9455 4.69866 12.024 5.13062 11.8364ZM7.57495 7.90909C7.57495 7.48691 7.22134 7.2 6.78217 7.2H5.97495C5.53784 7.2 5.18011 7.48691 5.18011 7.90909C5.18011 8.33127 5.53578 8.67273 5.97495 8.67273H6.78217C7.22134 8.67273 7.57495 8.33127 7.57495 7.90909ZM7.65639 4.8C7.84773 4.8 8.1066 4.8804 8.24196 5.02364C8.37722 5.16687 8.4533 5.36105 8.4533 5.56364C8.4533 5.76622 8.37722 5.9604 8.24196 6.10364C8.1066 6.24687 7.84773 6.32727 7.65639 6.32727H6.11C5.91856 6.32727 5.73505 6.24687 5.59969 6.10364C5.46433 5.9604 5.38835 5.76622 5.38835 5.56364C5.38835 5.36105 5.46433 5.16687 5.59969 5.02364C5.73505 4.8804 5.91856 4.8 6.11 4.8H7.65639ZM9.40897 3.16364C9.40897 2.96105 9.33289 2.76687 9.19753 2.62364C9.06227 2.4804 8.87866 2.4 8.68732 2.4H6.52237C6.33093 2.4 6.14743 2.4804 6.01206 2.62364C5.8767 2.76687 5.80072 2.96105 5.80072 3.16364C5.80072 3.36622 5.8767 3.5604 6.01206 3.70364C6.14743 3.84687 6.33093 3.92727 6.52237 3.92727H8.68732C8.87866 3.92727 9.06227 3.84687 9.19753 3.70364C9.33289 3.5604 9.40897 3.36622 9.40897 3.16364Z" fill="#80808C"/>
</g>
<defs>
<clipPath id="clip0_1499_1709">
<rect width="40" height="12" fill="white"/>
</clipPath>
</defs>
</svg>
