<svg width="139" height="24" viewBox="0 0 139 24" fill="none" xmlns="http://www.w3.org/2000/svg">
<path d="M0.160156 23H5.08816V0.600045H0.160156V23Z" fill="#FB5420"/>
<path d="M15.3302 10.52L12.2582 0.984046V0.600045H7.33016V23H12.2582V16.792L14.1462 23H20.2582V0.600045H15.3302V10.52Z" fill="#FB5420"/>
<path d="M32.8682 0.600045H22.5002V23H27.4282V13.816H32.1002V9.52805H27.4282V4.88805H32.8682V0.600045Z" fill="#FB5420"/>
<path d="M41.4437 0.600045C37.3477 0.600045 35.1077 2.36005 35.1077 7.00005V16.472C35.0117 20.824 36.6117 23 41.3797 23C45.4757 23 47.7477 21.08 47.8437 16.472V7.00005C47.8437 2.68005 46.2117 0.600045 41.4437 0.600045ZM41.4437 18.488C40.2597 18.456 39.9717 17.752 40.0037 16.504L40.0357 7.00005C40.0357 5.65604 40.4517 5.11205 41.4437 5.08005C42.6277 5.11205 42.9157 5.75205 42.9157 7.00005V16.472C42.9157 17.816 42.4357 18.52 41.4437 18.488Z" fill="#FB5420"/>
<path d="M56.3942 9.72005L54.7942 0.600045H50.0902L53.6422 23H59.1462L62.6662 0.600045H57.9622L56.3942 9.72005Z" fill="#191920"/>
<path d="M71.2524 0.600045C67.1564 0.600045 64.9164 2.36005 64.9164 7.00005V16.472C64.8204 20.824 66.4204 23 71.1884 23C75.2844 23 77.5564 21.08 77.6524 16.472V7.00005C77.6524 2.68005 76.0204 0.600045 71.2524 0.600045ZM71.2524 18.488C70.0684 18.456 69.7804 17.752 69.8124 16.504L69.8444 7.00005C69.8444 5.65604 70.2604 5.11205 71.2524 5.08005C72.4364 5.11205 72.7244 5.75205 72.7244 7.00005V16.472C72.7244 17.816 72.2444 18.52 71.2524 18.488Z" fill="#191920"/>
<path d="M79.8989 0.600045V23H84.7949C89.1149 23.128 91.9629 21.624 92.0589 17.016V6.23205C91.9949 2.29605 89.4669 0.568046 84.7949 0.600045H79.8989ZM84.7949 5.01605C86.4909 4.56805 87.2269 5.75205 87.1629 7.35205V16.76C87.0349 18.264 86.1709 18.936 84.7949 18.648V5.01605Z" fill="#191920"/>
<path d="M94.2877 23H99.2157V0.600045H94.2877V23Z" fill="#191920"/>
<path d="M113.106 0.600045H101.458V4.56805H104.786V23H109.714V4.56805H113.106V0.600045Z" fill="#191920"/>
<path d="M125.714 0.600045H115.346V23H125.618V18.552H120.274V13.816H124.946V9.52805H120.274V4.88805H125.714V0.600045Z" fill="#191920"/>
<path d="M132.882 0.600045H127.954V23H138.226V18.872H132.882V0.600045Z" fill="#191920"/>
</svg>
