<svg width="17" height="16" viewBox="0 0 17 16" fill="none" xmlns="http://www.w3.org/2000/svg">
<path fill-rule="evenodd" clip-rule="evenodd" d="M7.20823 1.14453C4.25601 1.42009 1.71684 3.0143 0.597982 5.29471C-0.263268 7.05009 -0.1919 8.98686 0.797191 10.7007C1.71305 12.2878 3.40611 13.5509 5.39144 14.1284C7.19662 14.6535 9.0413 14.6441 10.892 14.1003L11.2715 13.9888L12.6389 14.5072C13.391 14.7923 14.041 15.0256 14.0832 15.0256C14.1287 15.0256 14.187 14.9918 14.2257 14.943C14.2897 14.8623 14.2912 14.829 14.2912 13.4889V12.1174L14.5066 11.887C15.8943 10.4025 16.4643 8.43005 16.0432 6.56934C15.3876 3.67255 12.4986 1.46356 8.94736 1.14384C8.53471 1.1067 7.60962 1.10708 7.20823 1.14453Z" fill="#C7C7C7"/>
</svg>
