<svg width="24" height="24" viewBox="0 0 24 24" fill="none" xmlns="http://www.w3.org/2000/svg">
<path d="M0.00510272 16.6535C0.00510272 19.8088 2.56286 22.3666 5.71817 22.3666C8.87351 22.3666 11.4313 19.8088 11.4313 16.6535C11.4313 13.4981 8.87351 10.9404 5.71817 10.9404C5.0697 10.9404 4.44897 11.0535 3.86787 11.2527C5.15355 3.87894 10.9037 -0.876285 5.57333 3.03736C-0.337198 7.37716 -0.00122744 16.4789 0.00538616 16.6457C0.00538616 16.6483 0.00510272 16.6506 0.00510272 16.6535Z" fill="#FB5420"/>
<path d="M12.5735 16.6535C12.5735 19.8088 15.1312 22.3666 18.2866 22.3666C21.4419 22.3666 23.9997 19.8088 23.9997 16.6535C23.9997 13.4981 21.4419 10.9404 18.2865 10.9404C17.638 10.9404 17.0173 11.0535 16.4362 11.2527C17.7219 3.87894 23.472 -0.876285 18.1417 3.03736C12.2312 7.37716 12.5671 16.4789 12.5738 16.6457C12.5738 16.6483 12.5735 16.6506 12.5735 16.6535Z" fill="#FB5420"/>
</svg>
