<svg width="32" height="8" viewBox="0 0 32 8" fill="none" xmlns="http://www.w3.org/2000/svg">
<path d="M7.94986 3.8806L4.11586 0.0499921C4.05004 -0.0127578 3.94652 -0.0127578 3.88071 0.0499921L0.0501223 3.87718C0.0493076 3.87798 0.0485088 3.87878 0.0477101 3.87959C-0.0168289 3.94547 -0.0157586 4.05119 0.0501223 4.11573L3.88412 7.94634C3.91454 7.97794 3.95616 7.99629 3.99999 7.99746C4.04445 7.99773 4.08726 7.98061 4.11928 7.94974L7.94988 4.11914C7.95069 4.11834 7.95149 4.11754 7.95229 4.11672C8.01683 4.05088 8.01574 3.94514 7.94986 3.8806Z" fill="#FB5420"/>
<path d="M19.9499 3.8806L16.1159 0.0499921C16.05 -0.0127578 15.9465 -0.0127578 15.8807 0.0499921L12.0501 3.87718C12.0493 3.87798 12.0485 3.87878 12.0477 3.87959C11.9832 3.94547 11.9842 4.05119 12.0501 4.11573L15.8841 7.94634C15.9145 7.97794 15.9562 7.99629 16 7.99746C16.0444 7.99773 16.0873 7.98061 16.1193 7.94974L19.9499 4.11914C19.9507 4.11834 19.9515 4.11754 19.9523 4.11672C20.0168 4.05088 20.0157 3.94514 19.9499 3.8806Z" fill="#FB5420"/>
<path d="M31.9499 3.8806L28.1159 0.0499921C28.05 -0.0127578 27.9465 -0.0127578 27.8807 0.0499921L24.0501 3.87718C24.0493 3.87798 24.0485 3.87878 24.0477 3.87959C23.9832 3.94547 23.9842 4.05119 24.0501 4.11573L27.8841 7.94634C27.9145 7.97794 27.9562 7.99629 28 7.99746C28.0444 7.99773 28.0873 7.98061 28.1193 7.94974L31.9499 4.11914C31.9507 4.11834 31.9515 4.11754 31.9523 4.11672C32.0168 4.05088 32.0157 3.94514 31.9499 3.8806Z" fill="#FB5420"/>
</svg>
