<svg width="48" height="48" viewBox="0 0 48 48" fill="none" xmlns="http://www.w3.org/2000/svg">
<circle cx="24" cy="24" r="23.5" fill="#191920" stroke="#404048"/>
<path d="M22.9499 15.2002C18.6763 15.2002 15.1992 18.6773 15.1992 22.9509C15.1992 27.2247 18.6763 30.7015 22.9499 30.7015C27.2237 30.7015 30.7006 27.2247 30.7006 22.9509C30.7006 18.6773 27.2237 15.2002 22.9499 15.2002ZM22.9499 29.2707C19.4652 29.2707 16.6301 26.4356 16.6301 22.9509C16.6301 19.4662 19.4652 16.6311 22.9499 16.6311C26.4346 16.6311 29.2697 19.4662 29.2697 22.9509C29.2697 26.4356 26.4346 29.2707 22.9499 29.2707Z" fill="white"/>
<path d="M32.5888 31.5786L28.4869 27.4767C28.2074 27.1972 27.7548 27.1972 27.4753 27.4767C27.1957 27.756 27.1957 28.2091 27.4753 28.4884L31.5772 32.5903C31.7169 32.73 31.8999 32.7999 32.083 32.7999C32.2659 32.7999 32.4491 32.73 32.5888 32.5903C32.8683 32.311 32.8683 31.8579 32.5888 31.5786Z" fill="white"/>
</svg>
