<svg width="12" height="12" viewBox="0 0 12 12" fill="none" xmlns="http://www.w3.org/2000/svg">
<path fill-rule="evenodd" clip-rule="evenodd" d="M5.80186 0.0358876C5.75827 0.0552923 5.70304 0.0938088 5.67913 0.12145C5.65523 0.149118 5.27041 0.921416 4.82402 1.83768C4.37762 2.75394 4.00493 3.51161 3.99579 3.52141C3.98668 3.5312 3.14712 3.66095 2.13013 3.80974C0.812531 4.00251 0.258312 4.09359 0.201888 4.12656C0.0236377 4.23084 -0.0541554 4.50016 0.0407813 4.68442C0.0611739 4.724 0.610956 5.28024 1.26249 5.92052C1.91402 6.56077 2.51561 7.15501 2.59932 7.24103L2.75155 7.39744L2.43456 9.26056C2.08192 11.3332 2.08794 11.256 2.26559 11.4251C2.36364 11.5184 2.4931 11.5561 2.62436 11.5296C2.66995 11.5204 3.44234 11.1232 4.34075 10.6469C5.23916 10.1706 5.98671 9.78084 6.00198 9.78084C6.01728 9.78084 6.7755 10.1767 7.68699 10.6604C9.46012 11.6016 9.43703 11.5917 9.63541 11.4967C9.68523 11.4728 9.74939 11.4233 9.778 11.3866C9.90215 11.2273 9.90503 11.256 9.56575 9.26054L9.24906 7.39776L9.33491 7.30737C9.38214 7.25769 9.98362 6.66344 10.6716 5.98683C11.3595 5.31025 11.939 4.72422 11.9593 4.68455C12.0541 4.49954 11.9764 4.23134 11.7975 4.12587C11.7398 4.09188 11.2059 4.004 9.86924 3.80849C8.85257 3.65978 8.01327 3.53034 8.00416 3.52086C7.99502 3.51137 7.62232 2.75394 7.17593 1.83768C6.72954 0.921416 6.34472 0.149091 6.32082 0.121423C6.2206 0.00542099 5.96487 -0.036747 5.80186 0.0358876Z" fill="#209833"/>
</svg>
