<svg width="20" height="20" viewBox="0 0 20 20" fill="none" xmlns="http://www.w3.org/2000/svg">
<path d="M19.9259 9.76278C19.7684 9.5336 15.9834 4.16602 9.99995 4.16602C4.86569 4.16602 0.29062 9.50278 0.0981168 9.73028C-0.0327056 9.88528 -0.0327056 10.1128 0.0981168 10.2686C0.29062 10.4961 4.86569 15.8329 9.99995 15.8329C15.1342 15.8329 19.7092 10.4961 19.9017 10.2686C20.0226 10.1253 20.0334 9.91779 19.9259 9.76278ZM9.99995 14.9995C5.88407 14.9995 1.97065 11.0745 0.97649 9.99947C1.96901 8.92363 5.87825 4.99939 9.99995 4.99939C14.8158 4.99939 18.2151 8.91863 19.0451 9.97697C18.0867 11.0178 14.1508 14.9995 9.99995 14.9995Z" fill="#80808C"/>
<path d="M10.0013 6.66602C8.16299 6.66602 6.66797 8.16104 6.66797 9.9994C6.66797 11.8377 8.16299 13.3328 10.0013 13.3328C11.8397 13.3328 13.3347 11.8377 13.3347 9.9994C13.3347 8.16104 11.8397 6.66602 10.0013 6.66602ZM10.0013 12.4995C8.623 12.4995 7.5013 11.3778 7.5013 9.99943C7.5013 8.62109 8.623 7.49939 10.0013 7.49939C11.3797 7.49939 12.5014 8.62109 12.5014 9.99943C12.5014 11.3778 11.3797 12.4995 10.0013 12.4995Z" fill="#80808C"/>
</svg>
