<svg width="32" height="32" viewBox="0 0 32 32" fill="none" xmlns="http://www.w3.org/2000/svg">
<path fill-rule="evenodd" clip-rule="evenodd" d="M4.77878 1.3939C4.54667 1.53604 3.87077 2.24813 3.36366 2.88482C0.623394 6.32533 -0.519413 10.7865 0.220119 15.1561C0.653524 17.7172 1.74382 20.1545 3.36848 22.1944C3.88746 22.8459 4.60849 23.597 4.81954 23.7059C5.01302 23.8057 5.41641 23.8224 5.63427 23.7395C5.86201 23.6529 6.11625 23.363 6.19527 23.0999C6.30948 22.7196 6.18764 22.4329 5.67422 21.8744C3.6466 19.6683 2.4556 17.1254 2.06032 14.1582C1.97456 13.5147 1.97456 11.5585 2.06032 10.9149C2.3909 8.43329 3.28296 6.2392 4.74596 4.30919C4.98232 3.99733 5.38747 3.51146 5.64621 3.22942C6.18895 2.63789 6.31104 2.35865 6.19527 1.9732C6.11625 1.71012 5.86201 1.42022 5.63427 1.33358C5.39454 1.24246 4.9782 1.27177 4.77878 1.3939ZM26.3459 1.33739C26.1331 1.42396 25.8803 1.72091 25.8046 1.9732C25.6888 2.35865 25.8109 2.63789 26.3536 3.22942C28.3646 5.4212 29.5454 7.95191 29.9396 10.9149C30.0253 11.5587 30.0252 13.515 29.9395 14.1582C29.6062 16.6603 28.6626 18.9603 27.1977 20.8413C26.9613 21.1449 26.5688 21.6098 26.3256 21.8744C25.8122 22.4329 25.6904 22.7196 25.8046 23.0999C25.8836 23.363 26.1378 23.6529 26.3656 23.7395C26.5834 23.8224 26.9868 23.8057 27.1803 23.7059C27.3913 23.597 28.1124 22.8459 28.6314 22.1944C33.1229 16.5551 33.1229 8.51805 28.6314 2.87877C28.1124 2.22724 27.3913 1.4761 27.1803 1.3672C26.9945 1.27134 26.5474 1.25537 26.3459 1.33739ZM9.0922 5.54045C8.98899 5.58723 8.738 5.80503 8.53433 6.02452C6.86654 7.82174 5.9936 10.0592 5.9936 12.5366C5.9936 14.7535 6.67587 16.7374 8.03141 18.4618C8.90653 19.5751 9.29205 19.787 9.90487 19.4909C10.3363 19.2826 10.5491 18.735 10.3757 18.2798C10.3423 18.1924 10.1173 17.8925 9.87555 17.6134C9.33544 16.9898 9.0043 16.4944 8.6903 15.8401C7.68715 13.7502 7.68715 11.3229 8.6903 9.23301C9.0043 8.57874 9.33544 8.08333 9.87555 7.45974C10.1173 7.18063 10.3423 6.88075 10.3757 6.7933C10.6001 6.20433 10.183 5.53921 9.55255 5.48083C9.40014 5.46667 9.19697 5.49305 9.0922 5.54045ZM22.1888 5.52748C21.8344 5.6685 21.5636 6.05383 21.5636 6.41702C21.5636 6.75189 21.6494 6.9115 22.1243 7.45974C22.6644 8.08333 22.9955 8.57874 23.3095 9.23301C24.3127 11.3229 24.3127 13.7502 23.3095 15.8401C22.9955 16.4944 22.6644 16.9898 22.1243 17.6134C21.8825 17.8925 21.6575 18.1924 21.6242 18.2798C21.4507 18.735 21.6636 19.2826 22.095 19.4909C22.7078 19.787 23.0933 19.5751 23.9684 18.4618C25.324 16.7374 26.0062 14.7535 26.0062 12.5366C26.0062 10.0592 25.1335 7.82224 23.4655 6.02439C22.9717 5.49218 22.6208 5.35559 22.1888 5.52748ZM15.4686 8.74016C13.9076 8.98085 12.6799 10.0975 12.2773 11.6427C12.124 12.2311 12.1749 13.2044 12.3904 13.8077C12.7599 14.8419 13.5624 15.6711 14.6017 16.0925L14.9685 16.2412L14.9997 23.163C15.0309 30.0646 15.0313 30.0854 15.1617 30.261C15.6166 30.8734 16.3832 30.8734 16.8381 30.261C16.9685 30.0854 16.9689 30.0646 17.0001 23.163L17.0314 16.2412L17.3981 16.0925C18.4374 15.6711 19.24 14.8419 19.6094 13.8077C19.825 13.2044 19.8758 12.2311 19.7225 11.6427C19.3673 10.2794 18.3879 9.2554 17.0626 8.86209C16.7108 8.75762 15.8046 8.68833 15.4686 8.74016ZM16.8438 10.8677C17.1597 11.0322 17.5071 11.3947 17.6957 11.7569C17.9045 12.1578 17.9045 12.9153 17.6957 13.3162C17.5089 13.6749 17.1627 14.0381 16.8438 14.2101C16.6376 14.3214 16.4899 14.3449 15.9999 14.3449C15.3205 14.3449 15.0715 14.2491 14.6781 13.8361C14.2848 13.4231 14.158 13.1061 14.158 12.5366C14.158 12.1351 14.1865 11.9828 14.3041 11.7569C14.5577 11.2702 14.9708 10.9035 15.4369 10.7513C15.7279 10.6563 16.5719 10.7261 16.8438 10.8677Z" fill="white"/>
</svg>
